<svg fill="none" height="24" viewBox="0 0 24 24" width="24"><g fill="#fff"><path d="m0 0h24v24h-24z"/><path d="m18.7 19.5c-.83 1.24-1.7 2.45-3.04 2.47-1.34.03-1.77-.79-3.29-.79-1.53 0-2 .77-3.27.82-1.31.05-2.3-1.32-3.14-2.54-1.71-2.46-3.02-7.01-1.27-10.07.88-1.52 2.44-2.48 4.13-2.51 1.28-.02 2.5.87 3.29.87.78 0 2.26-1.07 3.81-.91.65.03 2.47.26 3.64 1.98-.1.06-2.17 1.28-2.15 3.81.03 3.02 2.65 4.03 2.68 4.04-.03.07-.42 1.44-1.39 2.83zm-5.7-16c.73-.83 1.94-1.46 2.94-1.5.13 1.17-.34 2.35-1.04 3.19-.69.85-1.83 1.51-2.95 1.42-.15-1.15.41-2.35 1.05-3.11z"/></g></svg>