<svg fill="none" height="24" viewBox="0 0 24 24" width="24" xmlns="http://www.w3.org/2000/svg" xmlns:xlink="http://www.w3.org/1999/xlink"><clipPath id="a"><path d="m0 0h24v24h-24z"/></clipPath><g clip-path="url(#a)"><path clip-rule="evenodd" d="m12.9 5.99998c0-.49706-.403-.9-.9-.9-.4971 0-.9.40294-.9.9v9.82722l-4.46362-4.4636c-.35148-.3515-.92133-.3515-1.2728 0-.35147.3514-.35147.9213 0 1.2728l6.00002 6c.3514.3514.9213.3514 1.2728 0l6-6c.3514-.3515.3514-.9214 0-1.2728-.3515-.3515-.9214-.3515-1.2728 0l-4.4636 4.4636z" fill="#000" fill-rule="evenodd"/></g></svg>