<svg fill="none" height="64" viewBox="0 0 64 64" width="64" xmlns="http://www.w3.org/2000/svg" xmlns:xlink="http://www.w3.org/1999/xlink"><clipPath id="a"><path d="m0 0h64v64h-64z"/></clipPath><path d="m0 0h64v64h-64z" fill="none"/><g clip-path="url(#a)"><path d="m19.6 39.54c.01.84.28 2.46.68 3.73.86 2.73 2.31 5.24 4.25 7.35 2.07 2.29 4.6 4.1 7.43 5.34 3.07 1.36 6.4 2.05 9.76 2.03 3.36 0 6.68-.7 9.75-2.06 2.82-1.25 5.35-3.08 7.43-5.36 1.93-2.12 3.38-4.63 4.24-7.37.83-2.64 1.06-5.45.67-8.19-.38-2.64-1.3-5.16-2.71-7.41-1.31-2.1-2.98-3.95-4.94-5.45h.01l-20-15.35-.05-.04c-1.31-1.01-3.52-1.01-4.96 0-1.46 1.02-1.63 2.71-.33 3.77v.01l8.33 6.78-25.41.02h-.03c-2.11.01-4.12 1.39-4.53 3.13-.41 1.77 1.02 3.25 3.2 3.25v.01l12.89-.03-22.99 17.65-.09.06c-2.17 1.66-2.87 4.43-1.5 6.17 1.38 1.78 4.33 1.78 6.52.01l12.55-10.26s-.19 1.39-.17 2.21zm32.24 4.65c-2.59 2.63-6.21 4.13-10.12 4.13-3.92.01-7.54-1.47-10.13-4.1-1.22-1.23-2.16-2.7-2.76-4.33-.55-1.52-.77-3.15-.64-4.77s.6-3.19 1.39-4.61c.78-1.4 1.82-2.65 3.07-3.66 2.52-2.04 5.71-3.15 9.06-3.16 3.35 0 6.55 1.1 9.06 3.14 1.28 1.04 2.32 2.27 3.07 3.64.78 1.4 1.26 2.95 1.4 4.55.14 1.64-.08 3.29-.64 4.83-.6 1.63-1.55 3.11-2.76 4.34z" fill="#ea7600"/><path d="m33.35 35.23c.13-2.13 1.17-4.01 2.75-5.35 1.66-1.37 3.75-2.12 5.9-2.1 2.27 0 4.35.8 5.9 2.1 1.58 1.34 2.62 3.22 2.74 5.35.12 2.19-.76 4.23-2.31 5.74-1.7 1.63-3.97 2.53-6.33 2.5-2.36.03-4.63-.87-6.34-2.5-1.54-1.51-2.42-3.55-2.31-5.74z" fill="#265787"/></g></svg>