<svg fill="none" height="24" viewBox="0 0 24 24" width="24"><path d="m19.6364 4.36361c.3514.35147.3514.92132 0 1.27279l-6.3636 6.3636 6.3636 6.3636c.3514.3515.3514.9213 0 1.2728-.3515.3515-.9213.3515-1.2728 0l-6.3636-6.3636-6.36363 6.3636c-.35147.3515-.92131.3515-1.27278 0-.35149-.3515-.35149-.9213 0-1.2728l6.36361-6.3636-6.36361-6.3636c-.35149-.35147-.35149-.92132 0-1.27279.35147-.35147.92131-.35147 1.27278 0l6.36363 6.36359 6.3636-6.36359c.3515-.35147.9213-.35147 1.2728 0z" fill="#fff"/></svg>