<svg fill="none" height="24" viewBox="0 0 24 24" width="24" xmlns="http://www.w3.org/2000/svg"><path clip-rule="evenodd" d="m17.0605 2.10001h-10.12102c-.89109-.00004-1.64908-.00007-2.25395.08125-.64443.08664-1.24816.28016-1.73614.76814-.48799.48799-.6815 1.09172-.76815 1.73615-.08132.60486-.08129 1.36281-.08125 2.2539v9.68775l4.76362-4.7636c.35147-.3515.92132-.3515 1.27279 0l1.8636 1.8636 4.8272-4.82719h-1.8272c-.497 0-.9-.40295-.9-.9 0-.49706.403-.9.9-.9h4c.122 0 .2383.02427.3445.06826.1036.04289.2009.10599.2858.18929l.0122.01224c.083.08454.1459.18139.1888.2846.0442.10641.0687.22315.0687.34561v3.99999c0 .4971-.4029.9-.9.9-.497 0-.9-.4029-.9-.9v-1.8272l-5.4636 5.4636c-.3515.3515-.92132.3515-1.27279 0l-1.8636-1.8636-5.34218 5.3422c.00693.0682.01471.1347.02341.1995.08665.6444.28016 1.2481.76815 1.7361.48798.488 1.09171.6815 1.73614.7682.60489.0813 1.36284.0813 2.25398.0812h10.12099c.8911.0001 1.6491.0001 2.254-.0812.6444-.0867 1.2481-.2802 1.7361-.7682s.6815-1.0917.7681-1.7361c.0814-.6049.0813-1.3629.0813-2.254v-10.12097c0-.89115.0001-1.64909-.0813-2.25398-.0866-.64443-.2801-1.24816-.7681-1.73615-.488-.48798-1.0917-.6815-1.7361-.76814-.6049-.08132-1.3629-.08129-2.2539-.08125z" fill="#000" fill-rule="evenodd"/></svg>