<svg fill="none" height="24" viewBox="0 0 24 24" width="24" xmlns="http://www.w3.org/2000/svg" xmlns:xlink="http://www.w3.org/1999/xlink"><clipPath id="a"><path d="m0 0h24v24h-24z"/></clipPath><g clip-path="url(#a)"><path d="m6.93 2.09h10.13c.89 0 1.64 0 2.25.09.64.08 1.25.28 1.74.76.48.49.68 1.1.76 1.74.09.61.09 1.36.09 2.25v10.13c0 .89 0 1.64-.09 2.25-.08.64-.28 1.25-.76 1.74-.49.48-1.1.68-1.74.76-.61.09-1.36.09-2.25.09h-10.13c-.89 0-1.64 0-2.25-.09-.64-.08-1.25-.28-1.74-.76-.48-.49-.68-1.1-.76-1.74-.09-.61-.09-1.36-.09-2.25v-10.13c0-.89 0-1.64.09-2.25.08-.64.28-1.25.76-1.74.49-.48 1.1-.68 1.74-.76.61-.09 1.36-.09 2.25-.09zm10.2 8.04c.35-.35.35-.92 0-1.27s-.92-.35-1.27 0l-5.36 5.36-2.87-2.86c-.35-.35-.92-.35-1.27 0s-.35.92 0 1.27l3.5 3.5c.35.35.92.35 1.27 0z" fill="#000" fill-rule="evenodd"/></g></svg>