<svg fill="none" height="24" viewBox="0 0 24 24" width="24" xmlns="http://www.w3.org/2000/svg" xmlns:xlink="http://www.w3.org/1999/xlink"><clipPath id="a"><path d="m0 0h24v24h-24z"/></clipPath><g clip-path="url(#a)"><path d="m6.93 2.09h.06 10.07c.89 0 1.64 0 2.25.09.64.08 1.25.28 1.74.76.48.49.68 1.1.76 1.74.09.61.09 1.36.09 2.25v10.13c0 .89 0 1.64-.09 2.25-.08.64-.28 1.25-.76 1.74-.49.48-1.1.68-1.74.76-.61.09-1.36.09-2.25.09h-10.13c-.89 0-1.64 0-2.25-.09-.64-.08-1.25-.28-1.74-.76-.48-.49-.68-1.1-.76-1.74-.09-.61-.09-1.36-.09-2.25v-10.07c0-.02 0-.04 0-.06 0-.89 0-1.64.09-2.25.08-.64.28-1.25.76-1.74.49-.48 1.1-.68 1.74-.76.61-.09 1.36-.09 2.25-.09zm-2.01 1.87c-.44.06-.61.16-.7.26-.1.09-.2.26-.26.7-.06.47-.07 1.11-.07 2.07v10.01c0 .96.01 1.6.07 2.07.06.44.16.61.26.7.09.1.26.2.7.26.47.06 1.11.07 2.07.07h10.01c.96 0 1.6-.01 2.07-.07.44-.06.61-.16.7-.26.1-.09.2-.26.26-.7.06-.47.07-1.11.07-2.07v-10.01c0-.96-.01-1.6-.07-2.07-.06-.44-.16-.61-.26-.7-.09-.1-.26-.2-.7-.26-.47-.06-1.11-.07-2.07-.07h-10.01c-.96 0-1.6.01-2.07.07z" fill="#000" fill-rule="evenodd"/></g></svg>