<svg fill="none" height="48" viewBox="0 0 48 48" width="48" xmlns="http://www.w3.org/2000/svg" xmlns:xlink="http://www.w3.org/1999/xlink"><clipPath id="a"><path d="m12 12h24v24h-24z"/></clipPath><clipPath id="b"><rect height="47" rx="7.5" width="47" x=".5" y=".5"/></clipPath><g clip-path="url(#b)"><g clip-path="url(#a)"><path clip-rule="evenodd" d="m31.6365 16.3638c.3515.3515.3515.9214 0 1.2729l-6.3636 6.3633 6.3636 6.3638c.3515.3515.3515.9214 0 1.2729-.3516.3511-.9214.3511-1.2727 0l-6.3638-6.3638-6.3635 6.3638c-.3516.3511-.9214.3511-1.2727 0-.3516-.3515-.3516-.9214 0-1.2729l6.3635-6.3638-6.3635-6.3633c-.3516-.3515-.3516-.9214 0-1.2729.3513-.3516.9211-.3516 1.2727 0l6.3635 6.3637 6.3638-6.3637c.3513-.3516.9211-.3516 1.2727 0z" fill="#fff" fill-rule="evenodd"/></g></g><rect height="47" rx="7.5" stroke="#fff" width="47" x=".5" y=".5"/></svg>