<svg fill="none" height="24" viewBox="0 0 24 24" width="24"><path d="m20.63 3.36c.35.35.35.92 0 1.27l-16 16c-.35.35-.92.35-1.27 0s-.35-.92 0-1.27l2.01-2.01c-1.49-1.34-2.57-3.13-3.03-5.16-.03-.13-.03-.26 0-.39 1-4.41 4.94-7.7 9.66-7.7 1.89 0 3.66.53 5.17 1.45l2.19-2.19c.35-.35.92-.35 1.27 0zm-4.78 3.51c-1.15-.62-2.46-.97-3.85-.97-3.79 0-6.97 2.59-7.86 6.1.41 1.6 1.3 3.01 2.5 4.07l2.04-2.03c-.37-.59-.59-1.29-.59-2.04 0-2.16 1.75-3.9 3.91-3.9.75 0 1.45.21 2.04.58zm-3.15 3.15c-.22-.08-.46-.12-.7-.12-1.16 0-2.11.94-2.11 2.1 0 .24.05.48.13.7zm6.05-2.04c.4-.29.97-.2 1.26.2.77 1.06 1.34 2.29 1.64 3.62.03.13.03.26 0 .39-1 4.41-4.94 7.71-9.65 7.71-1 0-1.97-.15-2.88-.43-.48-.14-.74-.65-.6-1.12.14-.48.65-.75 1.12-.6.75.22 1.54.35 2.36.35 3.78 0 6.96-2.6 7.85-6.1-.26-1.01-.7-1.94-1.3-2.76-.29-.4-.2-.97.2-1.26z" fill="#fff"/></svg>