<svg fill="none" height="24" viewBox="0 0 24 24" width="24"><path d="m2.34 11.8c1-4.41 4.94-7.7 9.66-7.7 4.71 0 8.65 3.29 9.65 7.7.03.13.03.26 0 .39-1 4.41-4.94 7.71-9.65 7.71-4.72 0-8.66-3.3-9.66-7.71-.03-.13-.03-.26 0-.39zm1.8.2c.89 3.5 4.07 6.1 7.86 6.1 3.78 0 6.96-2.6 7.85-6.1-.89-3.51-4.07-6.1-7.85-6.1-3.79 0-6.97 2.59-7.86 6.1zm3.95 0c0-2.16 1.75-3.9 3.91-3.9 2.15 0 3.9 1.74 3.9 3.9 0 2.15-1.75 3.9-3.9 3.9-2.16 0-3.91-1.75-3.91-3.9zm3.91-2.1c-1.16 0-2.11.94-2.11 2.1 0 1.15.95 2.1 2.11 2.1 1.15 0 2.1-.95 2.1-2.1 0-1.16-.95-2.1-2.1-2.1z" fill="#fff"/></svg>