<svg fill="none" height="24" viewBox="0 0 24 24" width="24"><g fill="#fff"><path d="m0 0h24v24h-24z"/><path d="m20.64 10.36h-8.46v3.48h4.83c-.21 1.13-.84 2.08-1.79 2.72-.81.54-1.84.86-3.05.86-2.34 0-4.32-1.59-5.03-3.71-.17-.54-.28-1.12-.28-1.71s.11-1.17.28-1.71c.71-2.12 2.69-3.7 5.04-3.7 1.32 0 2.5.45 3.43 1.34l2.58-2.58c-1.56-1.45-3.59-2.34-6.01-2.34-3.52 0-6.56 2.01-8.04 4.95-.61 1.22-.95 2.59-.95 4.04 0 1.46.34 2.83.95 4.04 1.48 2.94 4.52 4.96 8.04 4.96 2.42 0 4.46-.81 5.94-2.18 1.7-1.57 2.69-3.88 2.69-6.62 0-.63-.06-1.25-.17-1.84z"/></g></svg>