<svg fill="none" height="60" viewBox="0 0 72 60" width="72" xmlns="http://www.w3.org/2000/svg" xmlns:xlink="http://www.w3.org/1999/xlink"><clipPath id="a"><path d="m0 0h72v60h-72z"/></clipPath><g clip-path="url(#a)"><path d="m36.08 0c-19.31 0-34.43 24.6-35.86 45.37 6.06 10.53 20.67 14.49 35.86 14.49s29.8-3.96 35.86-14.49c-1.43-20.77-16.56-45.37-35.86-45.37z" fill="#b6deff"/><path d="m66.89 40.42s-4.26-9.23-8.59-14.62c-4.34-5.38-9.64-11.25-12.77-11.25s-11.88 15.51-15.89 15.51c-4.02 0-6.1-7.03-11.04-7.03s-12.78 16.96-12.78 16.96l-.53 2.88s2.72 12.1 31.23 12.1c28.52 0 30.8-11.91 30.8-11.91z" fill="#6c6"/><path d="m30.09 36.68c-4.43 0-6.7-4.37-7.93-7.07-1.11-2.44-1.3-6.28-4.44-6.39.31-.12.6-.19.88-.19 4.94 0 7.02 7.03 11.04 7.03 4.01 0 12.76-15.51 15.89-15.51.59 0 1.26.21 1.98.58-.54-.07-1.22-.03-1.75.5-1.01 1.02-10.19 21.05-15.67 21.05z" fill="#17ad49"/></g></svg>