<svg fill="none" height="48" viewBox="0 0 153 48" width="153" xmlns="http://www.w3.org/2000/svg"><path d="m95.72 15.81c-.43 0-.83-.06-1.18-.19-.37-.13-.69-.33-.97-.61-.54-.54-.81-1.24-.81-2.11 0-.16.01-.31.03-.46s.05-.29.09-.42c.13-.46.37-.86.73-1.2.56-.56 1.27-.84 2.11-.84.82 0 1.52.27 2.11.8.59.54.89 1.25.89 2.12s-.29 1.57-.85 2.11-1.28.8-2.15.8zm-23.73 22.58v-27.14h4.8v22.77h14.13v4.37zm52.87 0v-27.14h4.69v15.01h2.92l5.33-8.1h5.26l-6.56 9.64 7.1 10.59h-5.45l-5.41-8.02h-3.19v8.02zm-115.27-26.4h4.8v26.4h-4.8zm7.2 0h4.8v26.4h-4.8zm7.2 0h4.8v26.4h-4.8zm7.2 0h4.8v26.4h-4.8zm7.2 0h26.4v4.8h-26.4zm63.83 26.4v-20.23h4.38l.27 2.57c.23-.31.48-.6.75-.85.19-.18.39-.34.59-.49.18-.13.35-.24.54-.35.39-.22.79-.41 1.2-.56.34-.13.7-.24 1.07-.32.79-.21 1.53-.31 2.22-.31.47 0 .92.03 1.34.08l.21.02c.22.03.42.07.62.12.93.2 1.72.55 2.37 1.05 1.12.84 1.91 1.97 2.37 3.38.47 1.41.7 2.98.7 4.72v11.17h-4.69v-10.4c0-.74-.05-1.46-.15-2.15-.04-.27-.1-.53-.16-.78-.04-.14-.08-.27-.13-.4-.02-.08-.05-.16-.09-.24-.07-.17-.15-.34-.24-.5-.28-.57-.69-1.01-1.23-1.35-.3-.18-.66-.32-1.08-.4-.32-.06-.68-.1-1.07-.1-1.1 0-2.03.3-2.8.89s-1.34 1.38-1.73 2.38c-.38.97-.57 2.08-.57 3.34v9.71zm-8.84 0v-20.23h4.68v20.23zm-54.99-19.2h26.4v4.8h-26.4zm0 7.2h26.4v4.8h-26.4zm0 7.2h26.4v4.8h-26.4z" fill="#fff" fill-rule="evenodd"/></svg>