<svg fill="none" height="60" viewBox="0 0 60 60" width="60" xmlns="http://www.w3.org/2000/svg" xmlns:xlink="http://www.w3.org/1999/xlink"><clipPath id="a"><path d="m0 0h60v60h-60z"/></clipPath><linearGradient id="b" gradientUnits="userSpaceOnUse" x1="30" x2="30" y1="0" y2="60"><stop offset="0" stop-color="#17c9fb"/><stop offset="1" stop-color="#1a74e8"/></linearGradient><g clip-path="url(#a)"><path d="m13.14 0h33.72c7.25 0 13.14 5.88 13.14 13.14v33.71c0 7.26-5.89 13.15-13.14 13.15h-33.72c-7.26 0-13.14-5.89-13.14-13.15v-33.71c0-7.26 5.88-13.14 13.14-13.14z" fill="url(#b)"/><path d="m19.22 43.54.01.01-2.05 3.55c-.75 1.3-2.41 1.74-3.71.99-1.29-.75-1.74-2.41-.99-3.7l1.51-2.62.15-.25c.26-.37.9-1.02 2.17-.9 0 0 3.01.33 3.23 1.9 0 0 .03.51-.32 1.02zm29.1-9.07h-6.4c-.43-.03-.62-.19-.7-.28l-6.85-11.87-.01.01-.41-.59c-.67-1.03-1.74 1.6-1.74 1.6-1.28 2.94.18 6.27.69 7.28l9.51 16.48c.75 1.29 2.41 1.74 3.7.99 1.3-.75 1.74-2.41 1-3.71l-2.38-4.12c-.05-.1-.13-.37.36-.37h3.23c1.5 0 2.71-1.21 2.71-2.71s-1.21-2.71-2.71-2.71zm-12.43 3.69s.35 1.73-.98 1.73h-23.64c-1.5 0-2.72-1.21-2.72-2.71s1.22-2.71 2.72-2.71h6.08c.98-.06 1.21-.62 1.21-.62h.01l7.93-13.75c.14-.26.02-.51 0-.55l-2.62-4.54c-.75-1.3-.3-2.96.99-3.71 1.3-.75 2.96-.3 3.71.99l1.21 2.11 1.22-2.1c.75-1.3 2.4-1.74 3.7-.99 1.3.74 1.74 2.4.99 3.7l-11.04 19.13c-.05.11-.06.3.3.33h6.6v.06s3.81.06 4.33 3.63z" fill="#fff"/></g></svg>