<svg fill="none" height="70" viewBox="0 0 60 70" width="60" xmlns="http://www.w3.org/2000/svg" xmlns:xlink="http://www.w3.org/1999/xlink"><clipPath id="a"><path d="m0 0h60v70h-60z"/></clipPath><g clip-path="url(#a)"><path d="m18.37.19c-.35.01-.68.09-.98.26-.99.54-1.36 1.8-.81 2.78l2.23 4c-5.37 3.3-8.94 8.94-8.94 15.38v1.19c-1.03-1.18-2.55-1.92-4.24-1.92-3.11 0-5.63 2.5-5.63 5.59v17.21c0 3.08 2.52 5.59 5.63 5.59 1.69 0 3.21-.75 4.24-1.93v2.41c0 3.25 2.68 5.91 5.96 5.91h1.51v7.66c0 3.08 2.52 5.59 5.63 5.59s5.63-2.51 5.63-5.59v-7.66h2.62v7.66c0 3.08 2.52 5.59 5.63 5.59s5.63-2.51 5.63-5.59v-7.66h1.51c3.28 0 5.96-2.66 5.96-5.91v-2.41c1.03 1.18 2.55 1.93 4.24 1.93 3.11 0 5.63-2.51 5.63-5.59v-17.21c0-3.09-2.52-5.59-5.63-5.59-1.69 0-3.21.74-4.24 1.92v-.99-.06c0-.06 0-.11 0-.14 0-6.44-3.57-12.07-8.95-15.37l2.24-4.01c.55-.98.18-2.24-.81-2.78-.3-.17-.63-.25-.98-.26-.73 0-1.44.38-1.82 1.06l-2.34 4.19c-2.29-.84-4.78-1.3-7.38-1.3s-5.09.46-7.38 1.29l-2.34-4.18c-.38-.68-1.09-1.06-1.82-1.06z" fill="#fff"/><g fill="#a4c639"><path d="m5.63 23.33c-2.32 0-4.17 1.84-4.17 4.14v17.21c0 2.3 1.85 4.13 4.17 4.13s4.16-1.83 4.16-4.13v-17.21c0-2.3-1.84-4.14-4.16-4.14zm48.56 0c-2.31 0-4.16 1.84-4.16 4.14v17.21c0 2.3 1.85 4.13 4.16 4.13 2.32 0 4.17-1.83 4.17-4.13v-17.21c0-2.3-1.85-4.14-4.17-4.14z"/><path d="m22.97 42.98c-2.32 0-4.16 1.83-4.16 4.13v17.21c0 2.3 1.84 4.13 4.16 4.13s4.17-1.83 4.17-4.13v-17.21c0-2.3-1.85-4.13-4.17-4.13zm13.88 0c-2.32 0-4.17 1.83-4.17 4.13v17.21c0 2.3 1.85 4.13 4.17 4.13s4.16-1.83 4.16-4.13v-17.21c0-2.3-1.84-4.13-4.16-4.13z"/><path d="m18.38 1.65c-.1 0-.2.03-.28.08-.3.16-.4.5-.23.79l2.93 5.26c-5.64 2.92-9.45 8.45-9.46 14.81h37.14c-.01-6.36-3.82-11.89-9.46-14.81l2.93-5.26c.17-.29.07-.63-.23-.79-.09-.05-.18-.08-.28-.08-.21 0-.41.1-.52.3l-2.97 5.32c-2.44-1.07-5.16-1.67-8.04-1.67s-5.6.6-8.04 1.67l-2.97-5.32c-.05-.09-.12-.17-.22-.22-.09-.05-.19-.08-.3-.08zm-7.04 22.39v26.71c0 .59.11 1.17.34 1.71.22.54.55 1.03.97 1.45.42.41.91.74 1.46.96s1.13.34 1.72.34h28.16c.59 0 1.17-.12 1.72-.34s1.04-.55 1.46-.96c.42-.42.75-.91.97-1.45.23-.54.34-1.12.34-1.71v-26.71z"/></g><path d="m21.34 12.77c-.85 0-1.55.69-1.55 1.54 0 .84.7 1.53 1.55 1.53s1.55-.69 1.55-1.53c0-.85-.7-1.54-1.55-1.54zm17.14 0c-.85 0-1.55.69-1.55 1.54 0 .84.7 1.53 1.55 1.53s1.55-.69 1.55-1.53c0-.85-.7-1.54-1.55-1.54z" fill="#fff"/></g></svg>