<svg fill="none" height="64" viewBox="0 0 60 64" width="60" xmlns="http://www.w3.org/2000/svg" xmlns:xlink="http://www.w3.org/1999/xlink"><clipPath id="a"><path d="m0 0h60v64h-60z"/></clipPath><g clip-path="url(#a)"><path d="m55.79 51.73c-.46 3.33-2.72 6.21-5.89 7.49-1.55.64-3.23.83-4.91.64-1.62-.2-3.23-.71-4.91-1.67-2.33-1.28-4.66-3.26-7.37-6.2 4.27-5.18 6.85-9.91 7.82-14.13.45-1.99.52-3.78.32-5.44-.25-1.6-.84-3.07-1.74-4.35-2.01-2.88-5.37-4.54-9.12-4.54s-7.11 1.73-9.11 4.54c-.91 1.28-1.49 2.75-1.75 4.35-.25 1.66-.19 3.52.33 5.44.97 4.22 3.62 9.01 7.82 14.19-2.65 2.95-5.04 4.93-7.37 6.21-1.68.96-3.3 1.47-4.91 1.66-1.67.18-3.35-.04-4.92-.64-3.16-1.28-5.42-4.16-5.88-7.48-.19-1.6-.06-3.2.58-4.99.2-.64.52-1.28.84-2.05.46-1.02.97-2.11 1.49-3.2l.07-.12c4.46-9.53 9.24-19.25 14.22-28.72l.19-.38c.52-.96 1.03-1.98 1.55-2.94.52-1.03 1.1-1.99 1.81-2.82 1.36-1.53 3.17-2.36 5.17-2.36 2.01 0 3.82.83 5.17 2.36.72.83 1.3 1.79 1.81 2.82.52.96 1.04 1.98 1.56 2.94l.19.38c4.91 9.53 9.7 19.25 14.16 28.78v.06c.51 1.03.97 2.18 1.48 3.2.33.77.65 1.41.84 2.05.52 1.66.71 3.26.46 4.92zm-25.8-3c-3.49-4.35-5.75-8.44-6.52-11.9-.33-1.47-.39-2.75-.2-3.9.13-1.02.52-1.92 1.04-2.69 1.22-1.72 3.29-2.81 5.68-2.81 2.4 0 4.53 1.02 5.69 2.81.52.77.91 1.67 1.04 2.69.19 1.15.13 2.5-.2 3.9-.77 3.39-3.04 7.49-6.53 11.9zm29.16-3.33c-.33-.77-.65-1.6-.97-2.3-.52-1.15-1.04-2.24-1.49-3.26l-.06-.07c-4.46-9.59-9.25-19.31-14.29-28.9l-.19-.39c-.52-.96-1.04-1.98-1.55-3-.65-1.15-1.3-2.37-2.33-3.52-2.07-2.56-5.04-3.96-8.21-3.96-3.23 0-6.14 1.4-8.28 3.83-.97 1.15-1.68 2.37-2.32 3.52-.52 1.02-1.04 2.05-1.55 3.01l-.2.38c-4.97 9.59-9.82 19.31-14.28 28.91l-.07.12c-.45 1.03-.97 2.11-1.49 3.27-.34.75-.66 1.52-.96 2.3-.85 2.36-1.1 4.6-.78 6.91.71 4.79 3.94 8.82 8.4 10.61 1.68.71 3.43 1.03 5.24 1.03.52 0 1.16-.07 1.68-.13 2.13-.26 4.33-.96 6.46-2.18 2.65-1.47 5.18-3.58 8.02-6.65 2.84 3.07 5.43 5.18 8.01 6.65 2.14 1.22 4.34 1.92 6.47 2.18.52.06 1.16.13 1.68.13 1.81 0 3.62-.32 5.24-1.03 4.52-1.79 7.69-5.88 8.4-10.61.52-2.24.26-4.48-.58-6.85z" fill="#e0565b"/></g></svg>