<svg fill="none" height="60" viewBox="0 0 150 60" width="150" xmlns="http://www.w3.org/2000/svg" xmlns:xlink="http://www.w3.org/1999/xlink"><clipPath id="a"><path d="m0 0h150v60h-150z"/></clipPath><g clip-path="url(#a)"><path d="m0 0v4.1h29.19v-4.1zm33.33 0v4.1h41.61s-4.25-4.1-9.88-4.1zm49.77 0v4.1h25.17l-1.49-4.1zm43.22 0-1.5 4.1h24.95v-4.1zm-126.32 7.97v4.1h29.19v-4.1zm33.33.01v4.09h46.43s-.54-3.15-1.48-4.09zm49.77 0v4.09h27.93l-1.38-4.09zm40.23 0-1.38 4.09h27.82v-4.09zm-114.94 7.97v4.1h12.64v-4.1zm33.33 0v4.1h12.64v-4.1zm24.94 0v4.1h12.65s.8-2.17.8-4.1zm24.83 0v4.1h22.42l-1.5-4.1zm29.09 0-1.5 4.1h22.52v-4.1zm-112.19 7.98v4.1h12.64v-4.1zm33.33 0v4.1h32.3s2.7-2.11 3.56-4.1zm49.77 0v4.1h12.64v-2.28l.81 2.28h23.16l.86-2.28v2.28h12.64v-4.1h-23.73l-1.26 3.47-1.27-3.47zm-83.1 7.97v4.1h12.64v-4.1zm33.33 0v4.1h35.86c-.86-1.99-3.56-4.1-3.56-4.1zm49.77 0v4.1h12.64v-4.1zm14.94 0 1.53 4.1h17.37l1.45-4.1zm22.53 0v4.1h12.64v-4.1zm-120.57 7.98v4.1h12.64v-4.1zm33.33 0v4.1h12.64v-4.1zm24.94 0v4.1h13.45c0-1.94-.8-4.1-.8-4.1zm24.83 0v4.1h12.64v-4.1zm17.81 0 1.48 4.1h11.65l1.49-4.1zm19.66 0v4.1h12.64v-4.1zm-128.74 7.97v4.11h29.2v-4.11zm33.11 0v4.11h44.95c.94-.94 1.48-4.11 1.48-4.11zm50 0v4.11h20.8v-4.11zm28.85 0 1.52 4.11h5.93l1.43-4.11zm16.78 0v4.11h21.04v-4.11zm-128.74 7.99v4.1h29.2v-4.1zm33.11 0v4.09h31.73c5.63 0 9.88-4.09 9.88-4.09zm50 0v4.1h20.8v-4.1zm31.74 0 1.46 4.08.25.01 1.49-4.09zm13.89 0v4.1h21.04v-4.1z" fill="#1f70c1"/></g></svg>