<svg fill="none" height="60" viewBox="0 0 60 60" width="60" xmlns="http://www.w3.org/2000/svg" xmlns:xlink="http://www.w3.org/1999/xlink"><clipPath id="a"><path d="m0 0h60v60h-60z"/></clipPath><linearGradient id="b" gradientUnits="userSpaceOnUse" x1="59.845459" x2="0" y1="12.808613" y2="12.808613"><stop offset="0" stop-color="#37bda6"/><stop offset="1" stop-color="#8ad3b8"/></linearGradient><linearGradient id="c" gradientUnits="userSpaceOnUse" x1="59.845459" x2="0" y1="34.152565" y2="34.152565"><stop offset=".5" stop-color="#4bb6ad"/><stop offset="1" stop-color="#78bbc1"/></linearGradient><linearGradient id="d" gradientUnits="userSpaceOnUse" x1="29.922594" x2="59.845074" y1="34.152542" y2="34.152542"><stop offset="0" stop-color="#4379a7"/><stop offset="1" stop-color="#7cc9b8"/></linearGradient><g clip-path="url(#a)"><path d="m29.92 8.54v17.04l14.97-8.54v-17.04z" fill="#13a049" opacity=".5"/><path d="m29.92 8.54-14.96-8.54v17.08l14.96 8.54z" fill="#a2cc39" opacity=".5"/><path d="m44.89 0-14.97 8.54-14.96-8.54-14.96 8.54 29.92 17.08 29.91-17.08z" fill="url(#b)" opacity=".9"/><path d="m29.92 25.62-29.92-17.08v17.08l14.96 8.54v17.06l14.96 8.54 14.97-8.54v-17.06l14.94-8.54v-17.08z" fill="url(#c)"/><path d="m29.92 25.62v34.14l14.97-8.54v-17.06l14.94-8.54v-17.08z" fill="url(#d)"/><g fill="#231f20"><path d="m29.92 42.68v17.08l14.97-8.54z" opacity=".05"/><path d="m29.92 59.8v-17.08l-14.96 8.54z" opacity=".1"/><path d="m14.96 17.08-14.96 8.54 14.96 8.54 14.96-8.54z" opacity=".05"/><path d="m44.89 17.08-14.97 8.54 14.97 8.54 14.94-8.54z" opacity=".05"/></g></g></svg>