<svg fill="none" height="48" viewBox="0 0 48 48" width="48" xmlns="http://www.w3.org/2000/svg" xmlns:xlink="http://www.w3.org/1999/xlink"><clipPath id="a"><path d="m0 0h48v48h-48z"/></clipPath><path d="m0 0h48v48h-48z" fill="none"/><g clip-path="url(#a)"><path d="m14.7 29.66c.01.63.21 1.84.51 2.79.64 2.05 1.73 3.93 3.18 5.52 1.56 1.71 3.46 3.07 5.58 4 2.3 1.02 4.8 1.53 7.32 1.52 2.52 0 5.01-.52 7.31-1.55 2.12-.93 4.02-2.3 5.57-4.02 1.45-1.58 2.54-3.47 3.19-5.52.62-1.99.79-4.09.5-6.15-.29-1.97-.98-3.86-2.04-5.56-.98-1.57-2.23-2.95-3.7-4.08l-14.99-11.51-.04-.04c-.99-.75-2.64-.75-3.72.01-1.1.76-1.22 2.03-.25 2.83l6.25 5.09-19.06.02h-.02c-1.58 0-3.09 1.03-3.39 2.34-.31 1.33.76 2.44 2.4 2.44l9.66-.02-17.24 13.24-.07.05c-1.63 1.24-2.15 3.31-1.13 4.62 1.04 1.34 3.25 1.34 4.9.01l9.4-7.69s-.14 1.04-.12 1.66zm24.18 3.48c-1.94 1.98-4.66 3.09-7.59 3.1-2.94.01-5.66-1.11-7.6-3.08-.91-.92-1.62-2.02-2.07-3.24-.41-1.15-.57-2.37-.48-3.58.1-1.21.45-2.39 1.04-3.46.59-1.05 1.37-1.98 2.31-2.74 1.88-1.54 4.28-2.37 6.79-2.37s4.91.82 6.8 2.35c.96.78 1.74 1.71 2.3 2.73.59 1.05.94 2.22 1.05 3.42.1 1.22-.06 2.46-.48 3.62-.45 1.22-1.16 2.33-2.07 3.25z" fill="#ea7600"/><path d="m25.02 26.42c.09-1.6.87-3.01 2.06-4.01 1.24-1.03 2.8-1.59 4.42-1.58 1.7 0 3.26.6 4.42 1.58 1.18 1 1.97 2.41 2.06 4.01.09 1.65-.57 3.17-1.73 4.31-1.28 1.22-2.98 1.89-4.75 1.87-1.77.02-3.47-.65-4.75-1.87-1.16-1.14-1.83-2.66-1.73-4.31z" fill="#265787"/></g></svg>