<svg fill="none" height="45" viewBox="0 0 112 45" width="112" xmlns="http://www.w3.org/2000/svg" xmlns:xlink="http://www.w3.org/1999/xlink"><clipPath id="a"><path d="m0-.5h112v45h-112z"/></clipPath><path d="m0-.5h112v45h-112z" fill="none"/><g clip-path="url(#a)"><path d="m0-.5v3.07h21.8v-3.07zm24.88 0v3.07h31.07s-3.17-3.07-7.37-3.07zm37.17 0v3.07h18.79l-1.11-3.07zm32.27 0-1.12 3.07h18.63v-3.07zm-94.32 5.98v3.07h21.8v-3.07zm24.88 0v3.07h34.68s-.41-2.36-1.11-3.07zm37.17 0v3.07h20.85l-1.03-3.07zm30.03 0-1.03 3.07h20.78v-3.07zm-85.82 5.98v3.08h9.44v-3.08zm24.89 0v3.08h9.44v-3.08zm18.62 0v3.08h9.45s.59-1.63.59-3.08zm18.54 0v3.08h16.74l-1.12-3.08zm21.72 0-1.12 3.08h16.82v-3.08zm-83.77 5.98v3.08h9.44v-3.08zm24.89 0v3.08h24.11s2.02-1.58 2.66-3.08zm37.16 0v3.08h9.44v-1.71l.6 1.71h17.3l.64-1.71v1.71h9.44v-3.08h-17.72l-.94 2.61-.95-2.61zm-62.05 5.99v3.07h9.44v-3.07zm24.89 0v3.07h26.77c-.64-1.49-2.66-3.07-2.66-3.07zm37.16 0v3.07h9.44v-3.07zm11.16 0 1.14 3.07h12.97l1.08-3.07zm16.82 0v3.07h9.44v-3.07zm-90.03 5.98v3.07h9.44v-3.07zm24.89 0v3.07h9.44v-3.07zm18.62 0v3.07h10.04c0-1.45-.59-3.07-.59-3.07zm18.54 0v3.07h9.44v-3.07zm13.3 0 1.11 3.07h8.69l1.12-3.07zm14.68 0v3.07h9.44v-3.07zm-96.12 5.98v3.08h21.8v-3.08zm24.71 0v3.08h33.57c.7-.71 1.11-3.08 1.11-3.08zm37.34 0v3.08h15.53v-3.08zm21.54 0 1.14 3.08h4.42l1.07-3.08zm12.53 0v3.08h15.71v-3.08zm-96.12 5.99v3.07h21.8v-3.07zm24.71 0v3.07h23.7c4.2 0 7.37-3.08 7.37-3.08h-31.07zm37.34 0v3.07h15.53v-3.07zm23.7 0 1.09 3.06.19.01 1.11-3.08h-2.39zm10.37 0v3.07h15.71v-3.07z" fill="#1f70c1"/></g></svg>