<svg fill="none" height="53" viewBox="0 0 45 53" width="45" xmlns="http://www.w3.org/2000/svg" xmlns:xlink="http://www.w3.org/1999/xlink"><clipPath id="a"><path d="m0 0h45v53h-45z"/></clipPath><path d="m0 0h45v53h-45z" fill="none"/><g clip-path="url(#a)"><path d="m13.77.15c-.25 0-.51.06-.73.19-.74.41-1.02 1.36-.6 2.11l1.67 3.02c-4.03 2.5-6.71 6.77-6.71 11.65v.9c-.77-.89-1.91-1.45-3.18-1.45-2.33 0-4.22 1.89-4.22 4.23v13.03c0 2.33 1.89 4.23 4.22 4.23 1.27 0 2.41-.57 3.18-1.46v1.83c0 2.46 2.01 4.47 4.47 4.47h1.13v5.8c0 2.33 1.9 4.23 4.23 4.23s4.22-1.9 4.22-4.23v-5.8h1.96v5.8c0 2.33 1.89 4.23 4.23 4.23 2.33 0 4.22-1.9 4.22-4.23v-5.8h1.13c2.46 0 4.47-2.01 4.47-4.47v-1.83c.77.89 1.91 1.46 3.18 1.46 2.34 0 4.23-1.9 4.23-4.23v-13.03c0-2.34-1.89-4.23-4.23-4.23-1.27 0-2.41.56-3.18 1.45v-.75-.04c0-.05 0-.09 0-.11 0-4.88-2.68-9.14-6.71-11.64l1.68-3.03c.41-.75.14-1.7-.61-2.11-.22-.13-.47-.19-.73-.19-.55-.01-1.09.28-1.37.79l-1.76 3.18c-1.71-.64-3.58-.98-5.53-.98s-3.82.34-5.53.97l-1.76-3.17c-.28-.51-.82-.8-1.37-.79z" fill="#fff"/><g fill="#a4c639"><path d="m4.22 17.67c-1.74 0-3.12 1.38-3.12 3.12v13.04c0 1.74 1.38 3.12 3.12 3.12s3.12-1.38 3.12-3.12v-13.04c0-1.74-1.38-3.12-3.12-3.12zm36.42 0c-1.73 0-3.12 1.38-3.12 3.12v13.04c0 1.74 1.39 3.12 3.12 3.12 1.74 0 3.13-1.38 3.13-3.12v-13.04c0-1.74-1.39-3.12-3.13-3.12z"/><path d="m17.23 32.54c-1.74 0-3.13 1.38-3.13 3.13v13.03c0 1.74 1.39 3.13 3.13 3.13s3.12-1.39 3.12-3.13v-13.03c0-1.75-1.38-3.13-3.12-3.13zm10.41 0c-1.74 0-3.13 1.38-3.13 3.13v13.03c0 1.74 1.39 3.13 3.13 3.13 1.73 0 3.12-1.39 3.12-3.13v-13.03c0-1.75-1.39-3.13-3.12-3.13z"/><path d="m13.78 1.25c-.07 0-.14.02-.21.06-.22.12-.29.38-.17.6l2.2 3.98c-4.23 2.21-7.09 6.4-7.1 11.21h27.86c-.01-4.81-2.87-9-7.1-11.21l2.2-3.98c.12-.22.05-.48-.17-.6-.07-.04-.14-.06-.21-.06-.16 0-.31.08-.39.23l-2.23 4.02c-1.83-.81-3.87-1.26-6.03-1.26s-4.2.45-6.03 1.26l-2.22-4.02c-.04-.07-.1-.13-.17-.17s-.15-.06-.23-.06zm-5.28 16.95v20.23c0 .44.09.88.26 1.29s.41.78.73 1.09c.31.32.68.56 1.09.73s.85.26 1.29.26h21.12c.44 0 .88-.09 1.29-.26s.78-.41 1.09-.73c.32-.31.57-.68.73-1.09.17-.41.26-.85.26-1.29v-20.23z"/></g><path d="m16 9.67c-.63 0-1.16.52-1.16 1.16s.53 1.16 1.16 1.16c.64 0 1.17-.52 1.17-1.16s-.53-1.16-1.17-1.16zm12.86 0c-.64 0-1.16.52-1.16 1.16s.52 1.16 1.16 1.16 1.16-.52 1.16-1.16-.52-1.16-1.16-1.16z" fill="#fff"/></g></svg>