<svg fill="none" height="45" viewBox="0 0 54 45" width="54" xmlns="http://www.w3.org/2000/svg" xmlns:xlink="http://www.w3.org/1999/xlink"><clipPath id="a"><path d="m0 0h54v45h-54z"/></clipPath><path d="m0 0h54v45h-54z" fill="none"/><g clip-path="url(#a)"><path d="m27.06 0c-14.48 0-25.82 18.45-26.9 34.03 4.55 7.9 15.5 10.86 26.9 10.86 11.39 0 22.35-2.96 26.89-10.86-1.07-15.58-12.41-34.03-26.89-34.03z" fill="#b6deff"/><path d="m50.17 30.32s-3.2-6.93-6.45-10.97-7.22-8.44-9.57-8.44-8.91 11.64-11.92 11.64-4.58-5.28-8.28-5.28-9.59 12.72-9.59 12.72l-.4 2.16s2.05 9.07 23.43 9.07c21.39 0 23.1-8.92 23.1-8.92z" fill="#6c6"/><path d="m22.56 27.51c-3.32 0-5.02-3.28-5.94-5.31-.83-1.82-.98-4.7-3.33-4.78.23-.09.45-.15.66-.15 3.7 0 5.27 5.28 8.28 5.28s9.57-11.64 11.92-11.64c.44 0 .94.16 1.48.43-.4-.05-.91-.01-1.31.38-.76.76-7.65 15.79-11.76 15.79z" fill="#17ad49"/></g></svg>