<svg fill="none" height="45" viewBox="0 0 45 45" width="45" xmlns="http://www.w3.org/2000/svg" xmlns:xlink="http://www.w3.org/1999/xlink"><clipPath id="a"><path d="m0 0h45v45h-45z"/></clipPath><linearGradient id="b" gradientUnits="userSpaceOnUse" x1="44.884094" x2="0" y1="9.606468" y2="9.606468"><stop offset="0" stop-color="#37bda6"/><stop offset="1" stop-color="#8ad3b8"/></linearGradient><linearGradient id="c" gradientUnits="userSpaceOnUse" x1="44.884094" x2="0" y1="25.614298" y2="25.614298"><stop offset=".5" stop-color="#4bb6ad"/><stop offset="1" stop-color="#78bbc1"/></linearGradient><linearGradient id="d" gradientUnits="userSpaceOnUse" x1="22.441763" x2="44.883621" y1="25.614298" y2="25.614298"><stop offset="0" stop-color="#4379a7"/><stop offset="1" stop-color="#7cc9b8"/></linearGradient><path d="m0 0h45v45h-45z" fill="none"/><g clip-path="url(#a)"><path d="m22.44 6.4v12.78l11.22-6.4v-12.78z" fill="#13a049" opacity=".5"/><path d="m22.44 6.4-11.22-6.4v12.81l11.22 6.4z" fill="#a2cc39" opacity=".5"/><path d="m33.66 0-11.22 6.4-11.22-6.4-11.22 6.4 22.44 12.81 22.43-12.81z" fill="url(#b)" opacity=".9"/><path d="m22.44 19.21-22.44-12.81v12.81l11.22 6.41v12.79l11.22 6.41 11.22-6.41v-12.79l11.21-6.41v-12.81z" fill="url(#c)"/><path d="m22.44 19.21v25.61l11.22-6.41v-12.79l11.21-6.41v-12.81z" fill="url(#d)"/><g fill="#231f20"><path d="m22.44 32.01v12.81l11.22-6.41z" opacity=".05"/><path d="m22.44 44.85v-12.81l-11.22 6.4z" opacity=".1"/><path d="m11.22 12.81-11.22 6.4 11.22 6.41 11.22-6.41z" opacity=".05"/><path d="m33.66 12.81-11.22 6.4 11.22 6.41 11.21-6.41z" opacity=".05"/></g></g></svg>