<svg fill="none" height="48" viewBox="0 0 45 48" width="45" xmlns="http://www.w3.org/2000/svg" xmlns:xlink="http://www.w3.org/1999/xlink"><clipPath id="a"><path d="m0 0h45v48h-45z"/></clipPath><path d="m0 0h45v48h-45z" fill="none"/><g clip-path="url(#a)"><path d="m41.84 38.8c-.34 2.49-2.04 4.65-4.41 5.61-1.17.48-2.43.63-3.69.48-1.21-.14-2.42-.53-3.68-1.25-1.75-.96-3.49-2.44-5.53-4.65 3.2-3.88 5.14-7.43 5.87-10.6.34-1.49.38-2.83.24-4.08-.19-1.2-.63-2.3-1.31-3.26-1.5-2.16-4.02-3.4-6.84-3.4-2.81 0-5.33 1.29-6.83 3.4-.68.96-1.12 2.06-1.31 3.26-.19 1.25-.15 2.64.24 4.08.73 3.17 2.72 6.76 5.87 10.65-1.99 2.21-3.78 3.69-5.53 4.65-1.26.72-2.47 1.11-3.68 1.25-1.25.14-2.52-.03-3.69-.48-2.37-.96-4.07-3.12-4.41-5.61-.14-1.2-.05-2.4.44-3.74.14-.48.38-.96.63-1.54.34-.77.72-1.58 1.11-2.4l.05-.09c3.35-7.15 6.93-14.44 10.67-21.54l.14-.29c.39-.72.78-1.48 1.17-2.2.38-.77.82-1.49 1.35-2.12 1.02-1.15 2.38-1.77 3.88-1.77s2.86.62 3.88 1.78c.53.62.97 1.34 1.36 2.11.39.72.77 1.48 1.16 2.2l.15.29c3.68 7.15 7.27 14.44 10.61 21.58v.05c.39.77.73 1.63 1.12 2.4.24.58.48 1.06.63 1.54.39 1.24.53 2.44.34 3.69zm-19.35-2.26c-2.61-3.26-4.31-6.33-4.89-8.92-.24-1.1-.29-2.06-.15-2.92.1-.77.39-1.44.78-2.02.92-1.29 2.47-2.11 4.26-2.11 1.8 0 3.4.77 4.27 2.11.39.58.68 1.25.78 2.02.14.86.09 1.87-.15 2.92-.58 2.55-2.28 5.62-4.9 8.92zm21.87-2.49c-.24-.57-.49-1.2-.73-1.73-.39-.86-.77-1.68-1.11-2.44l-.05-.05c-3.35-7.2-6.93-14.49-10.72-21.68l-.14-.29c-.39-.72-.78-1.49-1.16-2.25-.49-.87-.97-1.78-1.75-2.64-1.55-1.92-3.78-2.97-6.16-2.97-2.42 0-4.6 1.05-6.2 2.87-.73.87-1.26 1.78-1.75 2.64-.39.77-.77 1.54-1.16 2.26l-.15.28c-3.73 7.2-7.37 14.49-10.71 21.68l-.05.1c-.34.77-.73 1.58-1.12 2.45-.25.56-.5 1.14-.72 1.72-.63 1.78-.83 3.46-.58 5.18.53 3.6 2.95 6.62 6.3 7.97 1.26.52 2.57.76 3.93.76.38 0 .87-.04 1.26-.09 1.6-.2 3.24-.72 4.84-1.63 1.99-1.11 3.88-2.69 6.02-4.99 2.13 2.3 4.07 3.88 6.01 4.99 1.6.91 3.25 1.43 4.85 1.63.38.05.87.09 1.26.09 1.35 0 2.71-.24 3.92-.76 3.4-1.35 5.77-4.42 6.31-7.97.38-1.68.19-3.35-.44-5.13z" fill="#e0565b"/></g></svg>