<svg fill="none" height="45" viewBox="0 0 45 45" width="45" xmlns="http://www.w3.org/2000/svg" xmlns:xlink="http://www.w3.org/1999/xlink"><clipPath id="a"><path d="m0 0h45v45h-45z"/></clipPath><linearGradient id="b" gradientUnits="userSpaceOnUse" x1="22.5" x2="22.5" y1="0" y2="45"><stop offset="0" stop-color="#17c9fb"/><stop offset="1" stop-color="#1a74e8"/></linearGradient><path d="m0 0h45v45h-45z" fill="none"/><g clip-path="url(#a)"><path d="m9.85 0h25.29c5.44 0 9.86 4.41 9.86 9.85v25.29c0 5.44-4.42 9.86-9.86 9.86h-25.29c-5.44 0-9.85-4.42-9.85-9.86v-25.29c0-5.44 4.41-9.85 9.85-9.85z" fill="url(#b)"/><path d="m14.42 32.66-1.54 2.66c-.56.98-1.8 1.31-2.78.75-.97-.56-1.3-1.81-.74-2.78l1.13-1.96.11-.19c.2-.28.68-.76 1.63-.67 0 0 2.26.24 2.42 1.41 0 0 .03.39-.23.78zm21.82-6.81h-4.8c-.33-.02-.47-.14-.53-.21l-5.13-8.9-.01.01-.31-.44c-.5-.78-1.31 1.2-1.31 1.2-.95 2.2.14 4.7.52 5.45l7.14 12.36c.56.97 1.8 1.31 2.77.74.98-.56 1.31-1.8.75-2.77l-1.79-3.09c-.03-.08-.09-.28.27-.28h2.43c1.12 0 2.03-.91 2.03-2.04 0-1.12-.91-2.03-2.03-2.03zm-9.32 2.77s.26 1.3-.74 1.3h-17.73c-1.12 0-2.04-.91-2.04-2.04 0-1.12.92-2.03 2.04-2.03h4.56c.73-.04.91-.47.91-.47l5.96-10.3h-.01c.11-.2.02-.39.01-.42l-1.97-3.41c-.56-.97-.23-2.21.74-2.77.98-.57 2.22-.23 2.78.74l.91 1.58.91-1.58c.57-.97 1.81-1.3 2.78-.74.98.56 1.31 1.8.75 2.78l-8.29 14.34c-.03.09-.04.23.23.25h4.95v.05s2.86.04 3.25 2.72z" fill="#fff"/></g></svg>