<svg fill="none" height="24" viewBox="0 0 24 24" width="24" xmlns="http://www.w3.org/2000/svg" xmlns:xlink="http://www.w3.org/1999/xlink"><clipPath id="a"><path d="m0 0h24v24h-24z"/></clipPath><g clip-path="url(#a)"><path clip-rule="evenodd" d="m8.29462 3.09801c1.30403-.65867 2.74408-1.00155 4.20508-.99805l.0019-.00005h.498c.0163.00023.0326.0009.0489.002 2.3053.12719 4.4846 1.09984 6.1172 2.73243 1.6325 1.63258 2.6052 3.81188 2.7324 6.11726.0011.0162.0018.0325.002.0488v.4981c.0037 1.4609-.3376 2.9008-.9961 4.205v.0019c-.7803 1.5606-1.9789 2.8714-3.4629 3.7891-1.4838.9176-3.1949 1.4052-4.9395 1.4062-.8438.0023-1.68-.1112-2.4882-.3339-.84082-.2317-1.36882-.341-1.52213-.3727h-.00003c-.03311-.0069-.04872-.0101-.04623-.0102-.08993.0024-.37123.0737-1.04102.2969l-4.11914 1.3731c-.15861.0529-.32881.0606-.49154.0222-.16272-.0384-.31154-.1214-.42976-.2396-.11823-.1182-.20119-.267-.23958-.4298-.03839-.1627-.03071-.3329.0222-.4915l1.37305-4.1191c.22321-.6697.29447-.9509.29688-1.041-.00009.0023-.00324-.013-.00991-.0452l-.00003-.0002c-.03144-.152-.14069-.6803-.37288-1.523-.22266-.8081-.33618-1.6444-.33398-2.4883.00103-1.74459.48862-3.45563 1.40625-4.93945.91749-1.4836 2.22897-2.68066 3.78907-3.46094zm.70507 6.0019c-.23879 0-.46781.09487-.63667.26372-.16885.16886-.26372.39788-.26372.63667 0 .2388.09487.4678.26372.6367.16886.1688.39788.2637.63667.2637h7.00001c.2388 0 .4678-.0949.6367-.2637.1688-.1689.2637-.3979.2637-.6367 0-.23879-.0949-.46781-.2637-.63667-.1689-.16885-.3979-.26372-.6367-.26372zm0 3.99999c-.23879 0-.46781.0949-.63667.2637-.16885.1689-.26372.3979-.26372.6367s.09487.4678.26372.6367c.16886.1688.39788.2637.63667.2637h4.00001c.2388 0 .4678-.0949.6367-.2637.1688-.1689.2637-.3979.2637-.6367s-.0949-.4678-.2637-.6367c-.1689-.1688-.3979-.2637-.6367-.2637z" fill="#000" fill-rule="evenodd"/></g></svg>