<svg fill="none" height="24" viewBox="0 0 24 24" width="24" xmlns="http://www.w3.org/2000/svg"><path clip-rule="evenodd" d="m8.00001 3.10001c-3.81077 0-6.9 3.08923-6.9 6.89999 0 3.8108 3.08923 6.9 6.9 6.9h1.15815c-.03836-.2946-.05815-.595-.05815-.9 0-3.8108 3.08919-6.89999 6.89999-6.89999 2.7356 0 5.0994 1.59199 6.2155 3.89999.4386-.9071.6845-1.9248.6845-3 0-3.81076-3.0892-6.89999-6.9-6.89999zm7.99999 7.99999c-2.7062 0-4.9 2.1938-4.9 4.9s2.1938 4.9 4.9 4.9c1.0279 0 1.9819-.3165 2.7698-.8574l2.5938 2.5938c.3515.3515.9213.3515 1.2728 0s.3515-.9213 0-1.2728l-2.5938-2.5938c.5409-.7879.8574-1.7419.8574-2.7698 0-2.7062-2.1938-4.9-4.9-4.9zm2.6364 3.2636c.3515.3515.3515.9213 0 1.2728l-2.5 2.5c-.1688.1688-.3977.2636-.6364.2636s-.4676-.0948-.6364-.2636l-1.5-1.5c-.3515-.3515-.3515-.9213 0-1.2728s.9213-.3515 1.2728 0l.8636.8636 1.8636-1.8636c.3515-.3515.9213-.3515 1.2728 0z" fill="#000" fill-rule="evenodd"/></svg>