<svg fill="none" height="24" viewBox="0 0 24 24" width="24" xmlns="http://www.w3.org/2000/svg"><path clip-rule="evenodd" d="m6.93947 2.10001h10.12113c.8911-.00004 1.649-.00007 2.2539.08125.6444.08664 1.2481.28016 1.7361.76814.488.48799.6815 1.09172.7681 1.73614.0814.60488.0813 1.36285.0813 2.254v.06047c0 .49706-.4029.9-.9.9h-18c-.49706 0-.9-.40294-.9-.9l-.00001-.06052v-.00005c-.00004-.8911-.00007-1.64902.08125-2.2539.08665-.64442.28016-1.24815.76815-1.73614.48798-.48798 1.09171-.6815 1.73614-.76814.60488-.08132 1.36284-.08129 2.25394-.08125zm-4.83947 8.89999c0-.497.40294-.9.9-.9h4c.49705 0 .9.403.9.9v10c0 .4971-.40295.9-.9.9h-.06057c-.89112 0-1.64903.0001-2.2539-.0812-.64443-.0867-1.24816-.2802-1.73614-.7682-.48799-.488-.6815-1.0917-.76815-1.7361-.08132-.6049-.08129-1.3629-.08125-2.254zm8.9-.9c-.497 0-.9.403-.9.9v10c0 .4971.403.9.9.9h6.0605c.8911 0 1.6491.0001 2.254-.0812.6444-.0867 1.2481-.2802 1.7361-.7682s.6815-1.0917.7682-1.7361c.0813-.6049.0812-1.3628.0812-2.2539v-6.0606c0-.497-.4029-.9-.9-.9z" fill="#000" fill-rule="evenodd"/></svg>