<svg fill="none" height="24" viewBox="0 0 24 24" width="24" xmlns="http://www.w3.org/2000/svg" xmlns:xlink="http://www.w3.org/1999/xlink"><clipPath id="a"><path d="m0 0h24v24h-24z"/></clipPath><g clip-path="url(#a)"><path clip-rule="evenodd" d="m22.5144 11.5133h-.0052c-9.0072-.0984-9.9365-2.97696-10.02-10.02144-.0015-.13584.0542-.26592.154-.35809.0999-.09263.2352-.136311.3696-.12575 5.3012.48288 9.4978 4.68096 9.9797 9.98158.012.1354-.0336.2693-.1257.3691-.0908.0984-.2184.1546-.3524.1546zm-21.50639-.5228c.47952-5.28624 4.66271-9.48336 9.94699-9.98015.1354-.012486.2703.03263.3711.12479.0998.09216.156.22272.1545.35857-.0844 7.03968-1.0113 9.91679-9.98876 10.01999h-.00576c-.13343 0-.26159-.0557-.35231-.1541-.09264-.0998-.137764-.2337-.12576-.3691zm.12525 1.6498c.09168-.0998.2088-.1709.35808-.1541 8.97796.1032 9.90436 2.9804 9.98876 10.0196.0015.1358-.0547.2663-.1545.3585-.0893.0821-.2055.1272-.3255.1272-.0148 0-.0302-.0005-.0451-.0019-5.2843-.4968-9.46798-4.6939-9.9475-9.9802-.011998-.1353.0336-.2692.12576-.3691zm11.35644 9.8678c.0835-7.0444 1.0123-9.923 10.0195-10.0214.1358.0053.2649.0547.3576.1546.0926.0998.1377.2337.1257.3691-.4814 5.3011-4.678 9.4987-9.9792 9.9816-.0144.0014-.0292.0019-.0436.0019-.12 0-.2367-.0456-.326-.1277-.0998-.0921-.1555-.2222-.154-.3581z" fill="#000" fill-rule="evenodd"/></g></svg>