<svg fill="none" height="24" viewBox="0 0 24 24" width="24"><path d="m2.22 5.41c-1.11 1.12-1.14 2.55-1.21 5.39-.01.39-.01.79-.01 1.2 0 .4 0 .8.01 1.19.07 2.84.1 4.27 1.21 5.39 1.1 1.13 2.6 1.19 5.59 1.32 1.35.06 2.78.1 4.19.1 1.4 0 2.84-.04 4.18-.1 2.99-.13 4.49-.19 5.59-1.32 1.11-1.12 1.14-2.55 1.21-5.39.01-.39.02-.79.02-1.19 0-.41-.01-.81-.02-1.2-.07-2.84-.1-4.27-1.21-5.39-1.1-1.13-2.6-1.19-5.59-1.32-1.34-.06-2.78-.09-4.18-.09-1.41 0-2.84.03-4.19.09-2.99.13-4.49.19-5.59 1.32zm6.78 10.59 7-4-7-4z" fill="#fff" fill-rule="evenodd"/></svg>